<svg xmlns="http://www.w3.org/2000/svg" width="26" height="26" viewBox="0 0 200 174" fill="#ccc">
<g clip-path="url(#clip0)">
<path d="M191.663 -1.87132e-05H160.815H158.962C153.312 -0.0926542 151.181 2.03796 149.514 4.63176L125.243 40.5743L102.084 5.37284L101.343 4.26121C101.343 4.26121 100.695 3.24222 99.5831 3.24222C98.4715 3.24222 97.8231 4.26121 97.8231 4.26121L97.082 5.37284L74.6642 40.5743L49.6526 4.63176C47.9852 2.03796 45.8546 -0.0926542 40.2038 -1.87132e-05H38.3511H7.41084V29.3654H25.5674C29.3655 29.3654 31.1255 29.5507 33.812 32.7003L34.9236 34.2751L71.6072 91.7091C71.6072 91.7091 72.8115 93.5618 74.8495 93.5618C77.0727 93.5618 78.277 91.7091 78.277 91.7091L99.6758 59.6572L121.908 91.6165C121.908 91.6165 123.205 93.4692 125.058 93.5618C127.096 93.6545 128.207 91.7091 128.207 91.7091L164.335 34.2751L165.447 32.7003C167.3 29.736 169.708 29.4581 173.506 29.4581L191.848 29.3654V-1.87132e-05H191.663Z" fill="#EEB111"/>
<path d="M145.16 82.1677L125.428 113.478L99.9537 76.5169L80.315 105.327L121.63 170.171C123.02 172.58 124.224 172.95 124.78 172.95C125.984 173.043 126.725 172.302 128.115 170.079L160.537 110.885C163.409 105.79 168.226 105.79 168.226 105.79H191.663V76.6095H155.164C148.495 76.6095 145.16 82.1677 145.16 82.1677Z" fill="#EEB111"/>
<path d="M143.492 168.689C143.492 170.912 141.825 172.58 139.602 172.58C137.378 172.58 135.711 170.912 135.711 168.689C135.711 166.466 137.378 164.799 139.602 164.799C141.825 164.799 143.492 166.559 143.492 168.689ZM136.359 168.689C136.359 170.542 137.749 172.024 139.602 172.024C141.454 172.024 142.844 170.542 142.844 168.689C142.844 166.837 141.454 165.354 139.602 165.354C137.749 165.354 136.359 166.837 136.359 168.689ZM138.768 171.005H138.212V166.559H139.972C140.991 166.559 141.454 167.022 141.454 167.763C141.454 168.597 140.899 168.874 140.343 168.967L141.64 170.912H140.991L139.694 168.967H138.768V171.005V171.005ZM139.509 168.504C140.157 168.504 140.899 168.504 140.899 167.763C140.899 167.114 140.343 167.022 139.88 167.022H138.861V168.597H139.509V168.504Z" fill="#EEB111"/>
</g>
<defs>
<clipPath id="clip0">
<rect width="200" height="173.043" fill="white"/>
</clipPath>
</defs>
</svg>
